<svg width="32" height="32" viewBox="0 0 32 32" fill="none" xmlns="http://www.w3.org/2000/svg">
  <rect width="32" height="32" rx="6" fill="#3B82F6"/>
  <path d="M7 18.5C7 21.5376 9.46243 24 12.5 24C15.5376 24 18 21.5376 18 18.5C18 17.0347 17.4222 15.7022 16.5 14.7113C16.234 14.8647 15.9305 14.969 15.6077 15.0128C15.8599 15.7755 16 16.6014 16 17.4615C16 20.0688 14.6569 22.1818 13 22.1818C11.3431 22.1818 10 20.0688 10 17.4615C10 16.6014 10.1401 15.7755 10.3923 15.0128C10.0695 14.969 9.76596 14.8647 9.5 14.7113C8.57776 15.7022 8 17.0347 8 18.5Z" fill="white"/>
  <circle cx="13" cy="12" r="3" fill="white"/>
  <rect x="12" y="8" width="13" height="2" rx="1" fill="white"/>
  <rect x="18" y="12" width="7" height="2" rx="1" fill="white"/>
  <rect x="22" y="16" width="3" height="2" rx="1" fill="white"/>
</svg> 