<svg width="1600" height="900" viewBox="0 0 1600 900" fill="none" xmlns="http://www.w3.org/2000/svg">
  <!-- 배경 -->
  <rect width="1600" height="900" fill="#E0F2FE"/>
  
  <!-- 구름 그룹 1 -->
  <g opacity="0.8">
    <ellipse cx="200" cy="200" rx="100" ry="60" fill="white"/>
    <ellipse cx="250" cy="170" rx="80" ry="50" fill="white"/>
    <ellipse cx="300" cy="210" rx="90" ry="55" fill="white"/>
    <ellipse cx="150" cy="210" rx="70" ry="45" fill="white"/>
  </g>
  
  <!-- 구름 그룹 2 -->
  <g opacity="0.6">
    <ellipse cx="800" cy="150" rx="120" ry="70" fill="white"/>
    <ellipse cx="870" cy="120" rx="90" ry="60" fill="white"/>
    <ellipse cx="930" cy="160" rx="100" ry="65" fill="white"/>
    <ellipse cx="740" cy="160" rx="80" ry="55" fill="white"/>
  </g>
  
  <!-- 구름 그룹 3 -->
  <g opacity="0.7">
    <ellipse cx="1300" cy="250" rx="110" ry="65" fill="white"/>
    <ellipse cx="1360" cy="220" rx="85" ry="55" fill="white"/>
    <ellipse cx="1420" cy="260" rx="95" ry="60" fill="white"/>
    <ellipse cx="1250" cy="260" rx="75" ry="50" fill="white"/>
  </g>
  
  <!-- 구름 그룹 4 (작은 구름) -->
  <g opacity="0.5">
    <ellipse cx="450" cy="350" rx="60" ry="35" fill="white"/>
    <ellipse cx="490" cy="330" rx="45" ry="30" fill="white"/>
    <ellipse cx="520" cy="350" rx="50" ry="35" fill="white"/>
    <ellipse cx="420" cy="350" rx="40" ry="30" fill="white"/>
  </g>
  
  <!-- 구름 그룹 5 (작은 구름) -->
  <g opacity="0.4">
    <ellipse cx="1100" cy="450" rx="70" ry="40" fill="white"/>
    <ellipse cx="1140" cy="430" rx="55" ry="35" fill="white"/>
    <ellipse cx="1170" cy="450" rx="60" ry="40" fill="white"/>
    <ellipse cx="1070" cy="450" rx="50" ry="35" fill="white"/>
  </g>
</svg> 